<svg version="1.1" id="Layer_1" xmlns="http://www.w3.org/2000/svg" x="0" y="0" viewBox="0 0 2070 2682.26" style="enable-background:new 0 0 2070 2682.26" xml:space="preserve"><style>.st0{fill:#c1a475}</style><circle transform="rotate(-75.783 594.5 2391.798)" class="st0" cx="594.53" cy="2391.87" r="16.82"/><circle transform="rotate(-75.783 662.664 2398.616)" class="st0" cx="662.69" cy="2398.69" r="16.82"/><circle transform="rotate(-75.783 708.104 2423.608)" class="st0" cx="708.14" cy="2423.69" r="16.82"/><circle transform="rotate(-75.783 702.247 2497.834)" class="st0" cx="702.28" cy="2497.91" r="16.82"/><circle transform="rotate(-75.783 750.093 2478.902)" class="st0" cx="750.13" cy="2478.98" r="16.82"/><circle transform="rotate(-75.783 747.956 2426.964)" class="st0" cx="747.99" cy="2427.04" r="16.82"/><circle transform="rotate(-75.783 828.215 2388.25)" class="st0" cx="828.25" cy="2388.32" r="16.82"/><circle transform="rotate(-75.783 881.689 2405.183)" class="st0" cx="881.73" cy="2405.26" r="16.82"/><circle transform="rotate(-75.783 899.548 2329.823)" class="st0" cx="899.59" cy="2329.9" r="16.82"/><circle transform="rotate(-75.783 954.983 2361.553)" class="st0" cx="955.02" cy="2361.63" r="16.82"/><circle transform="rotate(-75.783 1031.249 2403.65)" class="st0" cx="1031.29" cy="2403.72" r="16.82"/><circle transform="rotate(-75.783 949.967 2432.112)" class="st0" cx="950.01" cy="2432.19" r="16.82"/><circle transform="rotate(-75.783 879.577 2516.961)" class="st0" cx="879.62" cy="2517.04" r="16.82"/><circle transform="rotate(-75.783 846.08 2519.587)" class="st0" cx="846.12" cy="2519.67" r="16.82"/><circle transform="rotate(-75.783 831.302 2477.206)" class="st0" cx="831.34" cy="2477.29" r="16.82"/><circle transform="rotate(-75.783 803.816 2540.142)" class="st0" cx="803.85" cy="2540.22" r="16.82"/><circle transform="rotate(-75.783 840.834 2591.85)" class="st0" cx="840.87" cy="2591.93" r="16.82"/><circle transform="rotate(-75.783 864.816 2562.091)" class="st0" cx="864.86" cy="2562.17" r="16.82"/><circle transform="rotate(-75.783 892.604 2608.385)" class="st0" cx="892.64" cy="2608.47" r="16.82"/><circle transform="rotate(-75.783 900.006 2654.466)" class="st0" cx="900.05" cy="2654.55" r="16.82"/><circle transform="rotate(-75.783 950.126 2655.86)" class="st0" cx="950.17" cy="2655.94" r="16.82"/><circle transform="rotate(-75.783 934.63 2622.534)" class="st0" cx="934.67" cy="2622.62" r="16.82"/><circle transform="rotate(-75.783 971.818 2594.585)" class="st0" cx="971.86" cy="2594.67" r="16.82"/><circle transform="rotate(-75.783 906.399 2578.237)" class="st0" cx="906.44" cy="2578.32" r="16.82"/><circle transform="rotate(-75.783 946.994 2535.147)" class="st0" cx="947.04" cy="2535.23" r="16.82"/><circle transform="rotate(-75.783 981.066 2539.194)" class="st0" cx="981.11" cy="2539.27" r="16.82"/><circle transform="rotate(-75.783 1019.01 2481.948)" class="st0" cx="1019.05" cy="2482.03" r="16.82"/><circle transform="rotate(-75.783 1053.081 2555.445)" class="st0" cx="1053.13" cy="2555.53" r="16.82"/><circle transform="rotate(-75.783 1055.868 2502.734)" class="st0" cx="1055.91" cy="2502.81" r="16.82"/><circle transform="rotate(-75.783 1103.83 2537.25)" class="st0" cx="1103.88" cy="2537.33" r="16.82"/><circle transform="rotate(-75.783 1091.2 2582.595)" class="st0" cx="1091.25" cy="2582.68" r="16.82"/><circle transform="rotate(-75.783 1077.622 2458.393)" class="st0" cx="1077.67" cy="2458.47" r="16.82"/><circle transform="rotate(-75.783 876.772 2372.921)" class="st0" cx="876.81" cy="2373" r="16.82"/><circle transform="rotate(-75.783 1223.87 2425.442)" class="st0" cx="1223.92" cy="2425.52" r="16.82"/><circle transform="rotate(-75.783 1257.952 2383.63)" class="st0" cx="1258" cy="2383.7" r="16.82"/><circle transform="rotate(-75.783 1264.368 2446.964)" class="st0" cx="1264.42" cy="2447.04" r="16.82"/><circle transform="rotate(-75.783 1313.158 2420.995)" class="st0" cx="1313.21" cy="2421.07" r="16.82"/><circle transform="rotate(-75.783 1352.411 2487.542)" class="st0" cx="1352.47" cy="2487.62" r="16.82"/><circle transform="rotate(-75.783 1352.022 2337.495)" class="st0" cx="1352.08" cy="2337.57" r="16.82"/><circle transform="rotate(-75.783 1359.735 2271.285)" class="st0" cx="1359.79" cy="2271.35" r="16.82"/><circle transform="rotate(-75.783 1322.45 2280.87)" class="st0" cx="1322.5" cy="2280.94" r="16.82"/><circle transform="rotate(-75.783 1267.475 2283.728)" class="st0" cx="1267.53" cy="2283.8" r="16.82"/><circle transform="rotate(-75.783 1491.268 2276.336)" class="st0" cx="1491.33" cy="2276.41" r="16.82"/><circle transform="rotate(-75.783 1471.531 2207.323)" class="st0" cx="1471.59" cy="2207.39" r="16.82"/><circle transform="rotate(-75.783 1510.155 2252.765)" class="st0" cx="1510.21" cy="2252.83" r="16.82"/><circle transform="rotate(-75.783 1553.326 2220.956)" class="st0" cx="1553.39" cy="2221.02" r="16.82"/><circle transform="rotate(-75.783 1542.958 2280.5)" class="st0" cx="1543.02" cy="2280.57" r="16.82"/><circle transform="rotate(-75.783 587.683 2517.68)" class="st0" cx="587.71" cy="2517.76" r="16.82"/><circle transform="rotate(-75.783 549.057 2497.23)" class="st0" cx="549.09" cy="2497.31" r="16.82"/><circle transform="rotate(-75.783 599.042 2572.21)" class="st0" cx="599.07" cy="2572.29" r="16.82"/><circle transform="rotate(-75.783 527.906 2538.1)" class="st0" cx="527.93" cy="2538.18" r="16.82"/><circle transform="rotate(-75.783 562.866 2582.327)" class="st0" cx="562.9" cy="2582.41" r="16.82"/><circle transform="rotate(-75.783 655.847 2338.184)" class="st0" cx="655.88" cy="2338.26" r="16.82"/><circle transform="rotate(-75.783 712.65 2365.45)" class="st0" cx="712.68" cy="2365.52" r="16.82"/><circle transform="rotate(-75.783 730.826 2285.01)" class="st0" cx="730.86" cy="2285.08" r="16.82"/><circle transform="rotate(-75.783 314.119 1963.286)" class="st0" cx="314.14" cy="1963.35" r="16.82"/><circle transform="rotate(-75.783 295.943 1858.77)" class="st0" cx="295.96" cy="1858.83" r="16.82"/><circle transform="rotate(-75.783 305.947 1865.586)" class="st0" cx="305.96" cy="1865.65" r="16.82"/><circle transform="rotate(-75.783 256.529 1850.018)" class="st0" cx="256.54" cy="1850.08" r="16.82"/><circle transform="rotate(-75.783 271.847 1926.213)" class="st0" cx="271.86" cy="1926.28" r="16.82"/><circle transform="rotate(-75.783 231.73 1897.164)" class="st0" cx="231.75" cy="1897.23" r="16.82"/><circle transform="rotate(-75.783 201.935 1957.392)" class="st0" cx="201.95" cy="1957.46" r="16.82"/><circle transform="rotate(-75.783 238.707 2010.024)" class="st0" cx="238.72" cy="2010.09" r="16.82"/><circle transform="rotate(-75.783 239.185 2054.49)" class="st0" cx="239.2" cy="2054.56" r="16.82"/><circle transform="rotate(-75.783 236.743 2148.23)" class="st0" cx="236.76" cy="2148.3" r="16.82"/><circle transform="rotate(-75.783 176.24 2160.46)" class="st0" cx="176.25" cy="2160.53" r="16.82"/><circle transform="rotate(-75.783 197.62 2096.185)" class="st0" cx="197.64" cy="2096.25" r="16.82"/><circle transform="rotate(-75.783 152.8 2090.523)" class="st0" cx="152.81" cy="2090.59" r="16.82"/><circle transform="rotate(-75.783 119.633 2088.25)" class="st0" cx="119.65" cy="2088.32" r="16.82"/><circle transform="rotate(-75.783 183.865 2041.407)" class="st0" cx="183.88" cy="2041.47" r="16.82"/><circle transform="rotate(-75.783 109.809 2044.584)" class="st0" cx="109.82" cy="2044.65" r="16.82"/><circle transform="rotate(-75.783 148.86 1986.557)" class="st0" cx="148.87" cy="1986.62" r="16.82"/><circle transform="rotate(-75.783 96.123 1952.554)" class="st0" cx="96.13" cy="1952.62" r="16.82"/><circle transform="rotate(-75.783 65.627 1983.556)" class="st0" cx="65.64" cy="1983.62" r="16.82"/><circle transform="rotate(-75.783 69.505 1932.416)" class="st0" cx="69.52" cy="1932.48" r="16.82"/><circle transform="rotate(-75.783 31.43 1914.204)" class="st0" cx="31.44" cy="1914.27" r="16.82"/><circle transform="rotate(-75.783 74.592 1878.694)" class="st0" cx="74.6" cy="1878.76" r="16.82"/><circle transform="rotate(-75.783 156.023 1897.749)" class="st0" cx="156.04" cy="1897.81" r="16.82"/><circle transform="rotate(-75.783 168.839 1941.247)" class="st0" cx="168.85" cy="1941.31" r="16.82"/><circle transform="rotate(-75.783 193.273 1859.008)" class="st0" cx="193.29" cy="1859.07" r="16.82"/><circle transform="rotate(-75.783 173.18 1802.605)" class="st0" cx="173.19" cy="1802.66" r="16.82"/><circle transform="rotate(-75.783 168.298 1839.872)" class="st0" cx="168.31" cy="1839.93" r="16.82"/><circle transform="rotate(-75.783 246.126 1798.044)" class="st0" cx="246.14" cy="1798.1" r="16.82"/><circle transform="rotate(-75.783 179.722 1760.403)" class="st0" cx="179.73" cy="1760.46" r="16.82"/><circle transform="rotate(-75.783 217.23 1757.324)" class="st0" cx="217.24" cy="1757.38" r="16.82"/><circle transform="rotate(-75.783 223.166 1729.933)" class="st0" cx="223.18" cy="1729.99" r="16.82"/><circle transform="rotate(-75.783 185.154 1734.532)" class="st0" cx="185.17" cy="1734.59" r="16.82"/><circle transform="rotate(-75.783 157.968 1729.943)" class="st0" cx="157.98" cy="1730" r="16.82"/><circle transform="rotate(-75.783 177.574 1683.152)" class="st0" cx="177.59" cy="1683.21" r="16.82"/><circle transform="rotate(-75.783 149.173 1648.38)" class="st0" cx="149.18" cy="1648.43" r="16.82"/><circle transform="rotate(-75.783 71.753 1679.452)" class="st0" cx="71.76" cy="1679.51" r="16.82"/><circle transform="rotate(-75.783 110.05 1737.08)" class="st0" cx="110.06" cy="1737.14" r="16.82"/><circle transform="rotate(-75.783 129.291 1794.767)" class="st0" cx="129.3" cy="1794.83" r="16.82"/><circle transform="rotate(-75.783 122.75 1835.585)" class="st0" cx="122.76" cy="1835.64" r="16.82"/><circle transform="rotate(-75.783 78.737 1781.517)" class="st0" cx="78.75" cy="1781.58" r="16.82"/><circle transform="rotate(-75.783 76.615 1830.473)" class="st0" cx="76.63" cy="1830.53" r="16.82"/><circle transform="rotate(-75.783 246.81 1593.865)" class="st0" cx="246.83" cy="1593.92" r="16.82"/><circle transform="rotate(-75.783 286.697 1586.943)" class="st0" cx="286.71" cy="1586.99" r="16.82"/><circle transform="rotate(-75.783 278.31 1557.965)" class="st0" cx="278.33" cy="1558.02" r="16.82"/><circle transform="rotate(-75.783 378.07 1523.334)" class="st0" cx="378.09" cy="1523.38" r="16.82"/><circle transform="rotate(-75.783 390.867 1566.095)" class="st0" cx="390.89" cy="1566.15" r="16.82"/><circle transform="rotate(-75.783 423.325 1542.354)" class="st0" cx="423.35" cy="1542.4" r="16.82"/><circle transform="rotate(-75.783 468.332 1567.87)" class="st0" cx="468.35" cy="1567.92" r="16.82"/><circle transform="rotate(-75.783 469.21 1504.154)" class="st0" cx="469.23" cy="1504.2" r="16.82"/><circle transform="rotate(-75.783 514.982 1481.603)" class="st0" cx="515" cy="1481.65" r="16.82"/><circle transform="rotate(-75.783 553.59 1474.316)" class="st0" cx="553.61" cy="1474.36" r="16.82"/><circle transform="rotate(-75.783 510.145 1438.238)" class="st0" cx="510.17" cy="1438.28" r="16.82"/><circle transform="rotate(-75.783 500.781 1372.861)" class="st0" cx="500.8" cy="1372.9" r="16.82"/><circle transform="rotate(-75.783 392.29 1320.283)" class="st0" cx="392.31" cy="1320.32" r="16.82"/><circle transform="rotate(-75.783 320.354 1335.3)" class="st0" cx="320.37" cy="1335.34" r="16.82"/><circle transform="rotate(-75.783 331.75 1294.003)" class="st0" cx="331.77" cy="1294.04" r="16.82"/><circle transform="rotate(-75.783 283.424 1314.114)" class="st0" cx="283.44" cy="1314.16" r="16.82"/><circle transform="rotate(-75.783 315.739 1267.243)" class="st0" cx="315.75" cy="1267.28" r="16.82"/><circle transform="rotate(-75.783 369.01 1253.354)" class="st0" cx="369.03" cy="1253.39" r="16.82"/><circle transform="rotate(-75.783 436.995 1241.177)" class="st0" cx="437.01" cy="1241.22" r="16.82"/><circle transform="rotate(-75.783 387.47 1200.82)" class="st0" cx="387.49" cy="1200.86" r="16.82"/><circle transform="rotate(-75.783 377.477 1166.97)" class="st0" cx="377.49" cy="1167.01" r="16.82"/><circle transform="rotate(-75.783 310.645 1193.587)" class="st0" cx="310.66" cy="1193.62" r="16.82"/><circle transform="rotate(-75.783 266.623 1181.773)" class="st0" cx="266.64" cy="1181.81" r="16.82"/><circle transform="rotate(-75.783 266.756 1240.688)" class="st0" cx="266.77" cy="1240.73" r="16.82"/><circle transform="rotate(-75.783 243.334 1308.496)" class="st0" cx="243.35" cy="1308.54" r="16.82"/><circle transform="rotate(-75.783 172.659 1290.824)" class="st0" cx="172.67" cy="1290.87" r="16.82"/><circle transform="rotate(-75.783 196.889 1198.504)" class="st0" cx="196.9" cy="1198.54" r="16.82"/><circle transform="rotate(-75.783 118.386 1247.47)" class="st0" cx="118.4" cy="1247.51" r="16.82"/><circle transform="rotate(-75.783 118.91 1247.638)" class="st0" cx="118.92" cy="1247.68" r="16.82"/><circle transform="rotate(-75.783 559.022 1401.139)" class="st0" cx="559.05" cy="1401.18" r="16.82"/><circle transform="rotate(-75.783 540.24 1426.664)" class="st0" cx="540.26" cy="1426.71" r="16.82"/><circle transform="rotate(-75.783 609.425 1423.256)" class="st0" cx="609.45" cy="1423.3" r="16.82"/><circle transform="rotate(-75.783 579.248 1441.45)" class="st0" cx="579.27" cy="1441.5" r="16.82"/><circle transform="rotate(-75.783 596.2 1473.952)" class="st0" cx="596.23" cy="1474" r="16.82"/><circle transform="rotate(-75.783 726.535 1542.755)" class="st0" cx="726.56" cy="1542.8" r="16.82"/><circle transform="rotate(-75.783 751.137 1527.205)" class="st0" cx="751.17" cy="1527.25" r="16.82"/><circle transform="rotate(-75.783 737.22 1491.411)" class="st0" cx="737.25" cy="1491.46" r="16.82"/><circle transform="rotate(-75.783 783.372 1475.888)" class="st0" cx="783.4" cy="1475.93" r="16.82"/><circle transform="rotate(-75.783 786.496 1520.753)" class="st0" cx="786.53" cy="1520.8" r="16.82"/><circle transform="rotate(-75.783 838.33 1513.298)" class="st0" cx="838.36" cy="1513.34" r="16.82"/><circle transform="rotate(-75.783 857.375 1533.188)" class="st0" cx="857.41" cy="1533.24" r="16.82"/><circle transform="rotate(-75.783 826.143 1542.764)" class="st0" cx="826.18" cy="1542.81" r="16.82"/><circle transform="rotate(-75.783 871.664 1588.89)" class="st0" cx="871.7" cy="1588.94" r="16.82"/><circle transform="rotate(-75.783 925.76 1553.078)" class="st0" cx="925.8" cy="1553.13" r="16.82"/><circle transform="rotate(-75.783 960.791 1580.033)" class="st0" cx="960.83" cy="1580.08" r="16.82"/><circle transform="rotate(-75.783 924.525 1614.371)" class="st0" cx="924.56" cy="1614.42" r="16.82"/><circle transform="rotate(-75.783 961.128 1663.186)" class="st0" cx="961.17" cy="1663.24" r="16.82"/><circle transform="rotate(-75.783 886.84 1655.162)" class="st0" cx="886.88" cy="1655.21" r="16.82"/><circle transform="rotate(-75.783 897.039 1688.89)" class="st0" cx="897.08" cy="1688.94" r="16.82"/><circle transform="rotate(-75.783 832.745 1694.312)" class="st0" cx="832.78" cy="1694.36" r="16.82"/><circle transform="rotate(-75.783 829.178 1671.644)" class="st0" cx="829.21" cy="1671.7" r="16.82"/><circle transform="rotate(-75.783 782.368 1659.901)" class="st0" cx="782.4" cy="1659.95" r="16.82"/><circle transform="rotate(-75.783 819.31 1628.501)" class="st0" cx="819.34" cy="1628.55" r="16.82"/><circle transform="rotate(-75.783 782.263 1622.67)" class="st0" cx="782.29" cy="1622.72" r="16.82"/><circle transform="rotate(-75.783 799.88 1601.306)" class="st0" cx="799.91" cy="1601.36" r="16.82"/><circle transform="rotate(-75.783 799.117 1578.763)" class="st0" cx="799.15" cy="1578.81" r="16.82"/><circle transform="rotate(-75.783 770.831 1562.104)" class="st0" cx="770.86" cy="1562.15" r="16.82"/><circle transform="rotate(-75.783 751.077 1340.627)" class="st0" cx="751.11" cy="1340.67" r="16.82"/><circle transform="rotate(-75.783 1722.32 551.61)" class="st0" cx="1722.38" cy="551.62" r="16.82"/><circle transform="rotate(-75.783 1789.127 524.345)" class="st0" cx="1789.19" cy="524.35" r="16.82"/><circle transform="rotate(-75.783 1771.208 572.44)" class="st0" cx="1771.27" cy="572.45" r="16.82"/><circle transform="rotate(-75.783 1837.532 560.069)" class="st0" cx="1837.6" cy="560.08" r="16.82"/><circle transform="rotate(-75.783 1854.547 513.704)" class="st0" cx="1854.61" cy="513.71" r="16.82"/><circle transform="rotate(-75.783 1804.757 472.424)" class="st0" cx="1804.82" cy="472.43" r="16.82"/><circle transform="rotate(-75.783 1850.98 471.883)" class="st0" cx="1851.04" cy="471.89" r="16.82"/><circle transform="rotate(-75.783 1840.844 432.148)" class="st0" cx="1840.91" cy="432.15" r="16.82"/><circle transform="rotate(-75.783 1820.449 393.22)" class="st0" cx="1820.51" cy="393.23" r="16.82"/><circle transform="rotate(-75.783 1903.469 423.335)" class="st0" cx="1903.53" cy="423.34" r="16.82"/><circle transform="rotate(-75.783 1915.655 513.34)" class="st0" cx="1915.72" cy="513.35" r="16.82"/><circle transform="rotate(-75.783 1818.603 505.342)" class="st0" cx="1818.66" cy="505.35" r="16.82"/><circle transform="rotate(-75.783 1885.55 449.916)" class="st0" cx="1885.61" cy="449.92" r="16.82"/><circle transform="rotate(-75.783 1843.054 405.095)" class="st0" cx="1843.12" cy="405.1" r="16.82"/><circle transform="rotate(-75.783 1894.54 375.372)" class="st0" cx="1894.6" cy="375.38" r="16.82"/><circle transform="rotate(-75.783 1876.595 203.156)" class="st0" cx="1876.66" cy="203.15" r="16.82"/><circle transform="rotate(-75.783 1924.602 149.025)" class="st0" cx="1924.67" cy="149.02" r="16.82"/><circle transform="rotate(-75.783 1869.15 83.933)" class="st0" cx="1869.21" cy="83.93" r="16.82"/><circle transform="rotate(-75.783 1932.618 76.451)" class="st0" cx="1932.68" cy="76.45" r="16.82"/><circle transform="rotate(-75.783 1943.837 25.958)" class="st0" cx="1943.9" cy="25.95" r="16.82"/><circle transform="rotate(-75.783 2009.985 43.16)" class="st0" cx="2010.05" cy="43.15" r="16.82"/><circle transform="rotate(-75.783 2016.056 74.437)" class="st0" cx="2016.12" cy="74.43" r="16.82"/><circle transform="rotate(-75.783 1967.436 113.577)" class="st0" cx="1967.5" cy="113.57" r="16.82"/><circle transform="rotate(-75.783 2038.856 113.506)" class="st0" cx="2038.92" cy="113.5" r="16.82"/><circle transform="rotate(-75.783 1989.81 181.278)" class="st0" cx="1989.88" cy="181.28" r="16.82"/><circle transform="rotate(-75.783 692.002 1318.385)" class="st0" cx="692.03" cy="1318.43" r="16.82"/><circle transform="rotate(-75.783 676.302 1270.298)" class="st0" cx="676.33" cy="1270.34" r="16.82"/><circle transform="rotate(-75.783 650.198 1303.048)" class="st0" cx="650.23" cy="1303.09" r="16.82"/><circle transform="rotate(-75.783 648.21 1338.656)" class="st0" cx="648.24" cy="1338.7" r="16.82"/><circle transform="rotate(-75.783 600.47 1305.365)" class="st0" cx="600.5" cy="1305.41" r="16.82"/><circle transform="rotate(-75.783 735.27 1297.795)" class="st0" cx="735.3" cy="1297.83" r="16.82"/><circle transform="rotate(-75.783 763.67 1281.127)" class="st0" cx="763.7" cy="1281.17" r="16.82"/><circle transform="rotate(-75.783 800.13 1311.738)" class="st0" cx="800.16" cy="1311.78" r="16.82"/><circle transform="rotate(-75.783 455.597 1446.633)" class="st0" cx="455.62" cy="1446.68" r="16.82"/><circle transform="rotate(-75.783 550.9 1532.61)" class="st0" cx="550.92" cy="1532.66" r="16.82"/><circle transform="rotate(-75.783 194.583 1716.403)" class="st0" cx="194.6" cy="1716.46" r="16.82"/><circle transform="rotate(-75.783 207.342 1695.409)" class="st0" cx="207.36" cy="1695.46" r="16.82"/><circle transform="rotate(-75.783 238.823 1676.06)" class="st0" cx="238.84" cy="1676.11" r="16.82"/><circle transform="rotate(-75.783 264.507 1741.463)" class="st0" cx="264.52" cy="1741.52" r="16.82"/><circle transform="rotate(-75.783 592.228 2317.735)" class="st0" cx="592.26" cy="2317.81" r="16.82"/><circle transform="rotate(-75.783 454.545 2401.802)" class="st0" cx="454.57" cy="2401.88" r="16.82"/><circle transform="rotate(-75.783 380.921 2519.95)" class="st0" cx="380.94" cy="2520.03" r="16.82"/><circle transform="rotate(-75.783 328.664 2472.236)" class="st0" cx="328.68" cy="2472.32" r="16.82"/><circle transform="rotate(-75.783 476.35 2338.183)" class="st0" cx="476.38" cy="2338.26" r="16.82"/><circle transform="rotate(-75.783 380.923 2322.278)" class="st0" cx="380.94" cy="2322.35" r="16.82"/><circle transform="rotate(-75.783 374.106 2480.409)" class="st0" cx="374.13" cy="2480.49" r="16.82"/><circle transform="rotate(-75.783 637.671 2265.478)" class="st0" cx="637.7" cy="2265.55" r="16.82"/></svg>
