<?xml version="1.0" encoding="utf-8"?>
<!-- Generator: Adobe Illustrator 25.2.0, SVG Export Plug-In . SVG Version: 6.00 Build 0)  -->
<svg version="1.1" id="Layer_1" xmlns="http://www.w3.org/2000/svg" xmlns:xlink="http://www.w3.org/1999/xlink" x="0px" y="0px"
	 viewBox="0 0 2070 2682.26" style="enable-background:new 0 0 2070 2682.26;" xml:space="preserve">
<style type="text/css">
	.st0{fill:#C1A475;}
</style>
<g>
	
		<ellipse transform="matrix(0.2456 -0.9694 0.9694 0.2456 -1870.1019 2380.7461)" class="st0" cx="594.53" cy="2391.87" rx="16.82" ry="16.82"/>
	
		<ellipse transform="matrix(0.2456 -0.9694 0.9694 0.2456 -1825.286 2451.9685)" class="st0" cx="662.69" cy="2398.69" rx="16.82" ry="16.82"/>
	
		<ellipse transform="matrix(0.2456 -0.9694 0.9694 0.2456 -1815.2321 2514.8733)" class="st0" cx="708.14" cy="2423.69" rx="16.82" ry="16.82"/>
	
		<ellipse transform="matrix(0.2456 -0.9694 0.9694 0.2456 -1891.6051 2565.1936)" class="st0" cx="702.28" cy="2497.91" rx="16.82" ry="16.82"/>
	
		<ellipse transform="matrix(0.2456 -0.9694 0.9694 0.2456 -1837.1561 2597.293)" class="st0" cx="750.13" cy="2478.98" rx="16.82" ry="16.82"/>
	
		<ellipse transform="matrix(0.2456 -0.9694 0.9694 0.2456 -1788.42 2556.0383)" class="st0" cx="747.99" cy="2427.04" rx="16.82" ry="16.82"/>
	
		<ellipse transform="matrix(0.2456 -0.9694 0.9694 0.2456 -1690.3403 2604.6335)" class="st0" cx="828.25" cy="2388.32" rx="16.82" ry="16.82"/>
	
		<ellipse transform="matrix(0.2456 -0.9694 0.9694 0.2456 -1666.4144 2669.2463)" class="st0" cx="881.73" cy="2405.26" rx="16.82" ry="16.82"/>
	
		<ellipse transform="matrix(0.2456 -0.9694 0.9694 0.2456 -1579.8871 2629.7051)" class="st0" cx="899.59" cy="2329.9" rx="16.82" ry="16.82"/>
	
		<ellipse transform="matrix(0.2456 -0.9694 0.9694 0.2456 -1568.824 2707.3816)" class="st0" cx="955.02" cy="2361.63" rx="16.82" ry="16.82"/>
	
		<ellipse transform="matrix(0.2456 -0.9694 0.9694 0.2456 -1552.095 2813.0728)" class="st0" cx="1031.29" cy="2403.72" rx="16.82" ry="16.82"/>
	
		<ellipse transform="matrix(0.2456 -0.9694 0.9694 0.2456 -1641.0077 2755.7512)" class="st0" cx="950.01" cy="2432.19" rx="16.82" ry="16.82"/>
	
		<ellipse transform="matrix(0.2456 -0.9694 0.9694 0.2456 -1776.3644 2751.5278)" class="st0" cx="879.62" cy="2517.04" rx="16.82" ry="16.82"/>
	
		<ellipse transform="matrix(0.2456 -0.9694 0.9694 0.2456 -1804.1813 2721.0366)" class="st0" cx="846.12" cy="2519.67" rx="16.82" ry="16.82"/>
	
		<ellipse transform="matrix(0.2456 -0.9694 0.9694 0.2456 -1774.2465 2674.7375)" class="st0" cx="831.34" cy="2477.29" rx="16.82" ry="16.82"/>
	
		<ellipse transform="matrix(0.2456 -0.9694 0.9694 0.2456 -1855.9929 2695.5735)" class="st0" cx="803.85" cy="2540.22" rx="16.82" ry="16.82"/>
	
		<ellipse transform="matrix(0.2456 -0.9694 0.9694 0.2456 -1878.1908 2770.4685)" class="st0" cx="840.87" cy="2591.93" rx="16.82" ry="16.82"/>
	
		<ellipse transform="matrix(0.2456 -0.9694 0.9694 0.2456 -1831.2502 2771.2651)" class="st0" cx="864.86" cy="2562.17" rx="16.82" ry="16.82"/>
	
		<ellipse transform="matrix(0.2456 -0.9694 0.9694 0.2456 -1855.1632 2833.1292)" class="st0" cx="892.64" cy="2608.47" rx="16.82" ry="16.82"/>
	
		<ellipse transform="matrix(0.2456 -0.9694 0.9694 0.2456 -1894.2501 2875.0691)" class="st0" cx="900.05" cy="2654.55" rx="16.82" ry="16.82"/>
	
		<ellipse transform="matrix(0.2456 -0.9694 0.9694 0.2456 -1857.7897 2924.7075)" class="st0" cx="950.17" cy="2655.94" rx="16.82" ry="16.82"/>
	
		<ellipse transform="matrix(0.2456 -0.9694 0.9694 0.2456 -1837.1731 2884.543)" class="st0" cx="934.67" cy="2622.62" rx="16.82" ry="16.82"/>
	
		<ellipse transform="matrix(0.2456 -0.9694 0.9694 0.2456 -1782.0242 2899.5083)" class="st0" cx="971.86" cy="2594.67" rx="16.82" ry="16.82"/>
	
		<ellipse transform="matrix(0.2456 -0.9694 0.9694 0.2456 -1815.5305 2823.7571)" class="st0" cx="906.44" cy="2578.32" rx="16.82" ry="16.82"/>
	
		<ellipse transform="matrix(0.2456 -0.9694 0.9694 0.2456 -1743.1326 2830.6011)" class="st0" cx="947.04" cy="2535.23" rx="16.82" ry="16.82"/>
	
		<ellipse transform="matrix(0.2456 -0.9694 0.9694 0.2456 -1721.3508 2866.6838)" class="st0" cx="981.11" cy="2539.27" rx="16.82" ry="16.82"/>
	
		<ellipse transform="matrix(0.2456 -0.9694 0.9694 0.2456 -1637.2316 2860.2783)" class="st0" cx="1019.05" cy="2482.03" rx="16.82" ry="16.82"/>
	
		<ellipse transform="matrix(0.2456 -0.9694 0.9694 0.2456 -1682.7748 2948.7556)" class="st0" cx="1053.13" cy="2555.53" rx="16.82" ry="16.82"/>
	
		<ellipse transform="matrix(0.2456 -0.9694 0.9694 0.2456 -1629.5742 2911.6904)" class="st0" cx="1055.91" cy="2502.81" rx="16.82" ry="16.82"/>
	
		<ellipse transform="matrix(0.2456 -0.9694 0.9694 0.2456 -1626.8507 2984.2244)" class="st0" cx="1103.88" cy="2537.33" rx="16.82" ry="16.82"/>
	
		<ellipse transform="matrix(0.2456 -0.9694 0.9694 0.2456 -1680.3356 3006.1914)" class="st0" cx="1091.25" cy="2582.68" rx="16.82" ry="16.82"/>
	
		<ellipse transform="matrix(0.2456 -0.9694 0.9694 0.2456 -1570.178 2899.3274)" class="st0" cx="1077.67" cy="2458.47" rx="16.82" ry="16.82"/>
	
		<ellipse transform="matrix(0.2456 -0.9694 0.9694 0.2456 -1638.8489 2640.1406)" class="st0" cx="876.81" cy="2373" rx="16.82" ry="16.82"/>
	
		<ellipse transform="matrix(0.2456 -0.9694 0.9694 0.2456 -1427.9023 3016.2407)" class="st0" cx="1223.92" cy="2425.52" rx="16.82" ry="16.82"/>
	
		<ellipse transform="matrix(0.2456 -0.9694 0.9694 0.2456 -1361.656 3017.7354)" class="st0" cx="1258" cy="2383.7" rx="16.82" ry="16.82"/>
	
		<ellipse transform="matrix(0.2456 -0.9694 0.9694 0.2456 -1418.2123 3071.7354)" class="st0" cx="1264.42" cy="2447.04" rx="16.82" ry="16.82"/>
	
		<ellipse transform="matrix(0.2456 -0.9694 0.9694 0.2456 -1356.23 3099.4417)" class="st0" cx="1313.21" cy="2421.07" rx="16.82" ry="16.82"/>
	
		<ellipse transform="matrix(0.2456 -0.9694 0.9694 0.2456 -1391.1267 3187.699)" class="st0" cx="1352.47" cy="2487.62" rx="16.82" ry="16.82"/>
	
		<ellipse transform="matrix(0.2456 -0.9694 0.9694 0.2456 -1245.9647 3074.1223)" class="st0" cx="1352.08" cy="2337.57" rx="16.82" ry="16.82"/>
	
		<ellipse transform="matrix(0.2456 -0.9694 0.9694 0.2456 -1175.9615 3031.6484)" class="st0" cx="1359.79" cy="2271.35" rx="16.82" ry="16.82"/>
	
		<ellipse transform="matrix(0.2456 -0.9694 0.9694 0.2456 -1213.3823 3002.7363)" class="st0" cx="1322.5" cy="2280.94" rx="16.82" ry="16.82"/>
	
		<ellipse transform="matrix(0.2456 -0.9694 0.9694 0.2456 -1257.627 2951.5984)" class="st0" cx="1267.53" cy="2283.8" rx="16.82" ry="16.82"/>
	
		<ellipse transform="matrix(0.2456 -0.9694 0.9694 0.2456 -1081.6257 3162.9666)" class="st0" cx="1491.33" cy="2276.41" rx="16.82" ry="16.82"/>
	
		<ellipse transform="matrix(0.2456 -0.9694 0.9694 0.2456 -1029.6149 3091.7681)" class="st0" cx="1471.59" cy="2207.39" rx="16.82" ry="16.82"/>
	
		<ellipse transform="matrix(0.2456 -0.9694 0.9694 0.2456 -1044.5269 3163.4929)" class="st0" cx="1510.21" cy="2252.83" rx="16.82" ry="16.82"/>
	
		<ellipse transform="matrix(0.2456 -0.9694 0.9694 0.2456 -981.1223 3181.3445)" class="st0" cx="1553.39" cy="2221.02" rx="16.82" ry="16.82"/>
	
		<ellipse transform="matrix(0.2456 -0.9694 0.9694 0.2456 -1046.6666 3216.2158)" class="st0" cx="1543.02" cy="2280.57" rx="16.82" ry="16.82"/>
	
		<ellipse transform="matrix(0.2456 -0.9694 0.9694 0.2456 -1997.274 2469.1079)" class="st0" cx="587.71" cy="2517.76" rx="16.82" ry="16.82"/>
	
		<ellipse transform="matrix(0.2456 -0.9694 0.9694 0.2456 -2006.5909 2416.2363)" class="st0" cx="549.09" cy="2497.31" rx="16.82" ry="16.82"/>
	
		<ellipse transform="matrix(0.2456 -0.9694 0.9694 0.2456 -2041.5654 2521.2576)" class="st0" cx="599.07" cy="2572.29" rx="16.82" ry="16.82"/>
	
		<ellipse transform="matrix(0.2456 -0.9694 0.9694 0.2456 -2062.1675 2426.5664)" class="st0" cx="527.93" cy="2538.18" rx="16.82" ry="16.82"/>
	
		<ellipse transform="matrix(0.2456 -0.9694 0.9694 0.2456 -2078.6658 2493.822)" class="st0" cx="562.9" cy="2582.41" rx="16.82" ry="16.82"/>
	
		<ellipse transform="matrix(0.2456 -0.9694 0.9694 0.2456 -1771.8466 2399.7693)" class="st0" cx="655.88" cy="2338.26" rx="16.82" ry="16.82"/>
	
		<ellipse transform="matrix(0.2456 -0.9694 0.9694 0.2456 -1755.4244 2475.4043)" class="st0" cx="712.68" cy="2365.52" rx="16.82" ry="16.82"/>
	
		<ellipse transform="matrix(0.2456 -0.9694 0.9694 0.2456 -1663.7334 2432.3376)" class="st0" cx="730.86" cy="2285.08" rx="16.82" ry="16.82"/>
	
		<ellipse transform="matrix(0.2456 -0.9694 0.9694 0.2456 -1666.2299 1785.6644)" class="st0" cx="314.14" cy="1963.35" rx="16.82" ry="16.82"/>
	
		<ellipse transform="matrix(0.2456 -0.9694 0.9694 0.2456 -1578.6241 1689.1947)" class="st0" cx="295.96" cy="1858.83" rx="16.82" ry="16.82"/>
	
		<ellipse transform="matrix(0.2456 -0.9694 0.9694 0.2456 -1577.6846 1704.0352)" class="st0" cx="305.96" cy="1865.65" rx="16.82" ry="16.82"/>
	
		<ellipse transform="matrix(0.2456 -0.9694 0.9694 0.2456 -1599.8755 1644.3844)" class="st0" cx="256.54" cy="1850.08" rx="16.82" ry="16.82"/>
	
		<ellipse transform="matrix(0.2456 -0.9694 0.9694 0.2456 -1662.1824 1716.717)" class="st0" cx="271.86" cy="1926.28" rx="16.82" ry="16.82"/>
	
		<ellipse transform="matrix(0.2456 -0.9694 0.9694 0.2456 -1664.287 1655.9127)" class="st0" cx="231.75" cy="1897.23" rx="16.82" ry="16.82"/>
	
		<ellipse transform="matrix(0.2456 -0.9694 0.9694 0.2456 -1745.1504 1672.4672)" class="st0" cx="201.95" cy="1957.46" rx="16.82" ry="16.82"/>
	
		<ellipse transform="matrix(0.2456 -0.9694 0.9694 0.2456 -1768.4307 1747.8207)" class="st0" cx="238.72" cy="2010.09" rx="16.82" ry="16.82"/>
	
		<ellipse transform="matrix(0.2456 -0.9694 0.9694 0.2456 -1811.1741 1781.8297)" class="st0" cx="239.2" cy="2054.56" rx="16.82" ry="16.82"/>
	
		<ellipse transform="matrix(0.2456 -0.9694 0.9694 0.2456 -1903.889 1850.1838)" class="st0" cx="236.76" cy="2148.3" rx="16.82" ry="16.82"/>
	
		<ellipse transform="matrix(0.2456 -0.9694 0.9694 0.2456 -1961.3901 1800.7573)" class="st0" cx="176.25" cy="2160.53" rx="16.82" ry="16.82"/>
	
		<ellipse transform="matrix(0.2456 -0.9694 0.9694 0.2456 -1882.9512 1772.9938)" class="st0" cx="197.64" cy="2096.25" rx="16.82" ry="16.82"/>
	
		<ellipse transform="matrix(0.2456 -0.9694 0.9694 0.2456 -1911.277 1725.2721)" class="st0" cx="152.81" cy="2090.59" rx="16.82" ry="16.82"/>
	
		<ellipse transform="matrix(0.2456 -0.9694 0.9694 0.2456 -1934.0952 1691.406)" class="st0" cx="119.65" cy="2088.32" rx="16.82" ry="16.82"/>
	
		<ellipse transform="matrix(0.2456 -0.9694 0.9694 0.2456 -1840.2271 1718.3329)" class="st0" cx="183.88" cy="2041.47" rx="16.82" ry="16.82"/>
	
		<ellipse transform="matrix(0.2456 -0.9694 0.9694 0.2456 -1899.1768 1648.9393)" class="st0" cx="109.82" cy="2044.65" rx="16.82" ry="16.82"/>
	
		<ellipse transform="matrix(0.2456 -0.9694 0.9694 0.2456 -1813.4635 1643.0194)" class="st0" cx="148.87" cy="1986.62" rx="16.82" ry="16.82"/>
	
		<ellipse transform="matrix(0.2456 -0.9694 0.9694 0.2456 -1820.2883 1566.2426)" class="st0" cx="96.13" cy="1952.62" rx="16.82" ry="16.82"/>
	
		<ellipse transform="matrix(0.2456 -0.9694 0.9694 0.2456 -1873.3484 1560.0687)" class="st0" cx="65.64" cy="1983.62" rx="16.82" ry="16.82"/>
	
		<ellipse transform="matrix(0.2456 -0.9694 0.9694 0.2456 -1820.8469 1525.2468)" class="st0" cx="69.52" cy="1932.48" rx="16.82" ry="16.82"/>
	
		<ellipse transform="matrix(0.2456 -0.9694 0.9694 0.2456 -1831.917 1474.5977)" class="st0" cx="31.44" cy="1914.27" rx="16.82" ry="16.82"/>
	
		<ellipse transform="matrix(0.2456 -0.9694 0.9694 0.2456 -1764.9315 1489.6486)" class="st0" cx="74.6" cy="1878.76" rx="16.82" ry="16.82"/>
	
		<ellipse transform="matrix(0.2456 -0.9694 0.9694 0.2456 -1721.9697 1582.9629)" class="st0" cx="156.04" cy="1897.81" rx="16.82" ry="16.82"/>
	
		<ellipse transform="matrix(0.2456 -0.9694 0.9694 0.2456 -1754.4685 1628.2031)" class="st0" cx="168.85" cy="1941.31" rx="16.82" ry="16.82"/>
	
		<ellipse transform="matrix(0.2456 -0.9694 0.9694 0.2456 -1656.3119 1589.8463)" class="st0" cx="193.29" cy="1859.07" rx="16.82" ry="16.82"/>
	
		<ellipse transform="matrix(0.2456 -0.9694 0.9694 0.2456 -1616.7939 1527.8164)" class="st0" cx="173.19" cy="1802.66" rx="16.82" ry="16.82"/>
	
		<ellipse transform="matrix(0.2456 -0.9694 0.9694 0.2456 -1656.6039 1551.1986)" class="st0" cx="168.31" cy="1839.93" rx="16.82" ry="16.82"/>
	
		<ellipse transform="matrix(0.2456 -0.9694 0.9694 0.2456 -1557.3389 1595.0892)" class="st0" cx="246.14" cy="1798.1" rx="16.82" ry="16.82"/>
	
		<ellipse transform="matrix(0.2456 -0.9694 0.9694 0.2456 -1570.948 1502.3196)" class="st0" cx="179.73" cy="1760.46" rx="16.82" ry="16.82"/>
	
		<ellipse transform="matrix(0.2456 -0.9694 0.9694 0.2456 -1539.6661 1536.3562)" class="st0" cx="217.24" cy="1757.38" rx="16.82" ry="16.82"/>
	
		<ellipse transform="matrix(0.2456 -0.9694 0.9694 0.2456 -1508.635 1521.447)" class="st0" cx="223.18" cy="1729.99" rx="16.82" ry="16.82"/>
	
		<ellipse transform="matrix(0.2456 -0.9694 0.9694 0.2456 -1541.77 1488.067)" class="st0" cx="185.17" cy="1734.59" rx="16.82" ry="16.82"/>
	
		<ellipse transform="matrix(0.2456 -0.9694 0.9694 0.2456 -1557.8309 1458.251)" class="st0" cx="157.98" cy="1730" rx="16.82" ry="16.82"/>
	
		<ellipse transform="matrix(0.2456 -0.9694 0.9694 0.2456 -1497.6805 1441.9568)" class="st0" cx="177.59" cy="1683.21" rx="16.82" ry="16.82"/>
	
		<ellipse transform="matrix(0.2456 -0.9694 0.9694 0.2456 -1485.3988 1388.1913)" class="st0" cx="149.18" cy="1648.43" rx="16.82" ry="16.82"/>
	
		<ellipse transform="matrix(0.2456 -0.9694 0.9694 0.2456 -1573.9285 1336.583)" class="st0" cx="71.76" cy="1679.51" rx="16.82" ry="16.82"/>
	
		<ellipse transform="matrix(0.2456 -0.9694 0.9694 0.2456 -1600.9006 1417.1837)" class="st0" cx="110.06" cy="1737.14" rx="16.82" ry="16.82"/>
	
		<ellipse transform="matrix(0.2456 -0.9694 0.9694 0.2456 -1642.3059 1479.3571)" class="st0" cx="129.3" cy="1794.83" rx="16.82" ry="16.82"/>
	
		<ellipse transform="matrix(0.2456 -0.9694 0.9694 0.2456 -1686.8097 1503.8099)" class="st0" cx="122.76" cy="1835.64" rx="16.82" ry="16.82"/>
	
		<ellipse transform="matrix(0.2456 -0.9694 0.9694 0.2456 -1667.6011 1420.3539)" class="st0" cx="78.75" cy="1781.58" rx="16.82" ry="16.82"/>
	
		<ellipse transform="matrix(0.2456 -0.9694 0.9694 0.2456 -1716.6599 1455.2306)" class="st0" cx="76.63" cy="1830.53" rx="16.82" ry="16.82"/>
	
		<ellipse transform="matrix(0.2456 -0.9694 0.9694 0.2456 -1358.8921 1441.7145)" class="st0" cx="246.83" cy="1593.92" rx="16.82" ry="16.82"/>
	
		<ellipse transform="matrix(0.2456 -0.9694 0.9694 0.2456 -1322.0903 1475.1578)" class="st0" cx="286.71" cy="1586.99" rx="16.82" ry="16.82"/>
	
		<ellipse transform="matrix(0.2456 -0.9694 0.9694 0.2456 -1300.3264 1445.1661)" class="st0" cx="278.33" cy="1558.02" rx="16.82" ry="16.82"/>
	
		<ellipse transform="matrix(0.2456 -0.9694 0.9694 0.2456 -1191.4935 1515.7461)" class="st0" cx="378.09" cy="1523.38" rx="16.82" ry="16.82"/>
	
		<ellipse transform="matrix(0.2456 -0.9694 0.9694 0.2456 -1223.2915 1560.4124)" class="st0" cx="390.89" cy="1566.15" rx="16.82" ry="16.82"/>
	
		<ellipse transform="matrix(0.2456 -0.9694 0.9694 0.2456 -1175.7898 1573.9659)" class="st0" cx="423.35" cy="1542.4" rx="16.82" ry="16.82"/>
	
		<ellipse transform="matrix(0.2456 -0.9694 0.9694 0.2456 -1166.5714 1636.8462)" class="st0" cx="468.35" cy="1567.92" rx="16.82" ry="16.82"/>
	
		<ellipse transform="matrix(0.2456 -0.9694 0.9694 0.2456 -1104.1417 1589.6288)" class="st0" cx="469.23" cy="1504.2" rx="16.82" ry="16.82"/>
	
		<ellipse transform="matrix(0.2456 -0.9694 0.9694 0.2456 -1047.7491 1616.9856)" class="st0" cx="515" cy="1481.65" rx="16.82" ry="16.82"/>
	
		<ellipse transform="matrix(0.2456 -0.9694 0.9694 0.2456 -1011.5587 1648.9147)" class="st0" cx="553.61" cy="1474.36" rx="16.82" ry="16.82"/>
	
		<ellipse transform="matrix(0.2456 -0.9694 0.9694 0.2456 -1009.36 1579.5811)" class="st0" cx="510.17" cy="1438.28" rx="16.82" ry="16.82"/>
	
		<ellipse transform="matrix(0.2456 -0.9694 0.9694 0.2456 -953.0483 1521.1824)" class="st0" cx="500.8" cy="1372.9" rx="16.82" ry="16.82"/>
	
		<ellipse transform="matrix(0.2456 -0.9694 0.9694 0.2456 -983.9285 1376.3435)" class="st0" cx="392.31" cy="1320.32" rx="16.82" ry="16.82"/>
	
		<ellipse transform="matrix(0.2456 -0.9694 0.9694 0.2456 -1052.7555 1317.938)" class="st0" cx="320.37" cy="1335.34" rx="16.82" ry="16.82"/>
	
		<ellipse transform="matrix(0.2456 -0.9694 0.9694 0.2456 -1004.1245 1297.8303)" class="st0" cx="331.77" cy="1294.04" rx="16.82" ry="16.82"/>
	
		<ellipse transform="matrix(0.2456 -0.9694 0.9694 0.2456 -1060.0793 1266.1556)" class="st0" cx="283.44" cy="1314.16" rx="16.82" ry="16.82"/>
	
		<ellipse transform="matrix(0.2456 -0.9694 0.9694 0.2456 -990.2631 1262.1208)" class="st0" cx="315.75" cy="1267.28" rx="16.82" ry="16.82"/>
	
		<ellipse transform="matrix(0.2456 -0.9694 0.9694 0.2456 -936.61 1303.2828)" class="st0" cx="369.03" cy="1253.39" rx="16.82" ry="16.82"/>
	
		<ellipse transform="matrix(0.2456 -0.9694 0.9694 0.2456 -873.5159 1360.0009)" class="st0" cx="437.01" cy="1241.22" rx="16.82" ry="16.82"/>
	
		<ellipse transform="matrix(0.2456 -0.9694 0.9694 0.2456 -871.7568 1281.5457)" class="st0" cx="387.49" cy="1200.86" rx="16.82" ry="16.82"/>
	
		<ellipse transform="matrix(0.2456 -0.9694 0.9694 0.2456 -846.4812 1246.3202)" class="st0" cx="377.49" cy="1167.01" rx="16.82" ry="16.82"/>
	
		<ellipse transform="matrix(0.2456 -0.9694 0.9694 0.2456 -922.7033 1201.6145)" class="st0" cx="310.66" cy="1193.62" rx="16.82" ry="16.82"/>
	
		<ellipse transform="matrix(0.2456 -0.9694 0.9694 0.2456 -944.4628 1150.0273)" class="st0" cx="266.64" cy="1181.81" rx="16.82" ry="16.82"/>
	
		<ellipse transform="matrix(0.2456 -0.9694 0.9694 0.2456 -1001.4745 1194.6034)" class="st0" cx="266.77" cy="1240.73" rx="16.82" ry="16.82"/>
	
		<ellipse transform="matrix(0.2456 -0.9694 0.9694 0.2456 -1084.8781 1223.0538)" class="st0" cx="243.35" cy="1308.54" rx="16.82" ry="16.82"/>
	
		<ellipse transform="matrix(0.2456 -0.9694 0.9694 0.2456 -1121.0663 1141.209)" class="st0" cx="172.67" cy="1290.87" rx="16.82" ry="16.82"/>
	
		<ellipse transform="matrix(0.2456 -0.9694 0.9694 0.2456 -1013.2913 1095.049)" class="st0" cx="196.9" cy="1198.54" rx="16.82" ry="16.82"/>
	
		<ellipse transform="matrix(0.2456 -0.9694 0.9694 0.2456 -1119.9829 1055.8894)" class="st0" cx="118.4" cy="1247.51" rx="16.82" ry="16.82"/>
	
		<ellipse transform="matrix(0.2456 -0.9694 0.9694 0.2456 -1119.7512 1056.5237)" class="st0" cx="118.92" cy="1247.68" rx="16.82" ry="16.82"/>
	
		<ellipse transform="matrix(0.2456 -0.9694 0.9694 0.2456 -936.5223 1598.9736)" class="st0" cx="559.05" cy="1401.18" rx="16.82" ry="16.82"/>
	
		<ellipse transform="matrix(0.2456 -0.9694 0.9694 0.2456 -975.4352 1600.0245)" class="st0" cx="540.26" cy="1426.71" rx="16.82" ry="16.82"/>
	
		<ellipse transform="matrix(0.2456 -0.9694 0.9694 0.2456 -919.9376 1664.521)" class="st0" cx="609.45" cy="1423.3" rx="16.82" ry="16.82"/>
	
		<ellipse transform="matrix(0.2456 -0.9694 0.9694 0.2456 -960.3412 1648.9939)" class="st0" cx="579.27" cy="1441.5" rx="16.82" ry="16.82"/>
	
		<ellipse transform="matrix(0.2456 -0.9694 0.9694 0.2456 -979.0596 1689.9467)" class="st0" cx="596.23" cy="1474" rx="16.82" ry="16.82"/>
	
		<ellipse transform="matrix(0.2456 -0.9694 0.9694 0.2456 -947.4286 1868.2006)" class="st0" cx="726.56" cy="1542.8" rx="16.82" ry="16.82"/>
	
		<ellipse transform="matrix(0.2456 -0.9694 0.9694 0.2456 -913.7942 1880.3186)" class="st0" cx="751.17" cy="1527.25" rx="16.82" ry="16.82"/>
	
		<ellipse transform="matrix(0.2456 -0.9694 0.9694 0.2456 -889.5939 1839.8239)" class="st0" cx="737.25" cy="1491.46" rx="16.82" ry="16.82"/>
	
		<ellipse transform="matrix(0.2456 -0.9694 0.9694 0.2456 -839.7279 1872.8522)" class="st0" cx="783.4" cy="1475.93" rx="16.82" ry="16.82"/>
	
		<ellipse transform="matrix(0.2456 -0.9694 0.9694 0.2456 -880.8633 1909.7279)" class="st0" cx="786.53" cy="1520.8" rx="16.82" ry="16.82"/>
	
		<ellipse transform="matrix(0.2456 -0.9694 0.9694 0.2456 -834.5325 1954.3508)" class="st0" cx="838.36" cy="1513.34" rx="16.82" ry="16.82"/>
	
		<ellipse transform="matrix(0.2456 -0.9694 0.9694 0.2456 -839.4446 1987.8195)" class="st0" cx="857.41" cy="1533.24" rx="16.82" ry="16.82"/>
	
		<ellipse transform="matrix(0.2456 -0.9694 0.9694 0.2456 -872.2905 1964.7676)" class="st0" cx="826.18" cy="1542.81" rx="16.82" ry="16.82"/>
	
		<ellipse transform="matrix(0.2456 -0.9694 0.9694 0.2456 -882.6621 2043.6942)" class="st0" cx="871.7" cy="1588.94" rx="16.82" ry="16.82"/>
	
		<ellipse transform="matrix(0.2456 -0.9694 0.9694 0.2456 -807.1346 2069.1179)" class="st0" cx="925.8" cy="1553.13" rx="16.82" ry="16.82"/>
	
		<ellipse transform="matrix(0.2456 -0.9694 0.9694 0.2456 -806.8363 2123.4119)" class="st0" cx="960.83" cy="1580.08" rx="16.82" ry="16.82"/>
	
		<ellipse transform="matrix(0.2456 -0.9694 0.9694 0.2456 -867.4839 2114.1609)" class="st0" cx="924.56" cy="1614.42" rx="16.82" ry="16.82"/>
	
		<ellipse transform="matrix(0.2456 -0.9694 0.9694 0.2456 -887.1912 2186.4714)" class="st0" cx="961.17" cy="1663.24" rx="16.82" ry="16.82"/>
	
		<ellipse transform="matrix(0.2456 -0.9694 0.9694 0.2456 -935.4572 2108.4038)" class="st0" cx="886.88" cy="1655.21" rx="16.82" ry="16.82"/>
	
		<ellipse transform="matrix(0.2456 -0.9694 0.9694 0.2456 -960.458 2143.7346)" class="st0" cx="897.08" cy="1688.94" rx="16.82" ry="16.82"/>
	
		<ellipse transform="matrix(0.2456 -0.9694 0.9694 0.2456 -1014.2193 2085.4993)" class="st0" cx="832.78" cy="1694.36" rx="16.82" ry="16.82"/>
	
		<ellipse transform="matrix(0.2456 -0.9694 0.9694 0.2456 -994.9368 2064.9395)" class="st0" cx="829.21" cy="1671.7" rx="16.82" ry="16.82"/>
	
		<ellipse transform="matrix(0.2456 -0.9694 0.9694 0.2456 -1018.8677 2010.7035)" class="st0" cx="782.4" cy="1659.95" rx="16.82" ry="16.82"/>
	
		<ellipse transform="matrix(0.2456 -0.9694 0.9694 0.2456 -960.559 2022.8252)" class="st0" cx="819.34" cy="1628.55" rx="16.82" ry="16.82"/>
	
		<ellipse transform="matrix(0.2456 -0.9694 0.9694 0.2456 -982.8548 1982.5127)" class="st0" cx="782.29" cy="1622.72" rx="16.82" ry="16.82"/>
	
		<ellipse transform="matrix(0.2456 -0.9694 0.9694 0.2456 -948.8544 1983.4736)" class="st0" cx="799.91" cy="1601.36" rx="16.82" ry="16.82"/>
	
		<ellipse transform="matrix(0.2456 -0.9694 0.9694 0.2456 -927.5764 1965.7268)" class="st0" cx="799.15" cy="1578.81" rx="16.82" ry="16.82"/>
	
		<ellipse transform="matrix(0.2456 -0.9694 0.9694 0.2456 -932.7665 1925.7384)" class="st0" cx="770.86" cy="1562.15" rx="16.82" ry="16.82"/>
	
		<ellipse transform="matrix(0.2456 -0.9694 0.9694 0.2456 -732.9711 1739.5004)" class="st0" cx="751.11" cy="1340.67" rx="16.82" ry="16.82"/>
	
		<ellipse transform="matrix(0.2456 -0.9694 0.9694 0.2456 764.6354 2085.7664)" class="st0" cx="1722.38" cy="551.62" rx="16.82" ry="16.82"/>
	
		<ellipse transform="matrix(0.2456 -0.9694 0.9694 0.2456 841.4679 2129.9602)" class="st0" cx="1789.19" cy="524.35" rx="16.82" ry="16.82"/>
	
		<ellipse transform="matrix(0.2456 -0.9694 0.9694 0.2456 781.3251 2148.8738)" class="st0" cx="1771.27" cy="572.45" rx="16.82" ry="16.82"/>
	
		<ellipse transform="matrix(0.2456 -0.9694 0.9694 0.2456 843.3551 2203.8354)" class="st0" cx="1837.6" cy="560.08" rx="16.82" ry="16.82"/>
	
		<ellipse transform="matrix(0.2456 -0.9694 0.9694 0.2456 901.1376 2185.3503)" class="st0" cx="1854.61" cy="513.71" rx="16.82" ry="16.82"/>
	
		<ellipse transform="matrix(0.2456 -0.9694 0.9694 0.2456 903.5909 2105.9409)" class="st0" cx="1804.82" cy="472.43" rx="16.82" ry="16.82"/>
	
		<ellipse transform="matrix(0.2456 -0.9694 0.9694 0.2456 938.9872 2150.3411)" class="st0" cx="1851.04" cy="471.89" rx="16.82" ry="16.82"/>
	
		<ellipse transform="matrix(0.2456 -0.9694 0.9694 0.2456 969.8597 2110.5383)" class="st0" cx="1840.91" cy="432.15" rx="16.82" ry="16.82"/>
	
		<ellipse transform="matrix(0.2456 -0.9694 0.9694 0.2456 992.2094 2061.3992)" class="st0" cx="1820.51" cy="393.23" rx="16.82" ry="16.82"/>
	
		<ellipse transform="matrix(0.2456 -0.9694 0.9694 0.2456 1025.6493 2164.5981)" class="st0" cx="1903.53" cy="423.34" rx="16.82" ry="16.82"/>
	
		<ellipse transform="matrix(0.2456 -0.9694 0.9694 0.2456 947.5913 2244.3135)" class="st0" cx="1915.72" cy="513.35" rx="16.82" ry="16.82"/>
	
		<ellipse transform="matrix(0.2456 -0.9694 0.9694 0.2456 882.1256 2144.198)" class="st0" cx="1818.66" cy="505.35" rx="16.82" ry="16.82"/>
	
		<ellipse transform="matrix(0.2456 -0.9694 0.9694 0.2456 986.3622 2167.2812)" class="st0" cx="1885.61" cy="449.92" rx="16.82" ry="16.82"/>
	
		<ellipse transform="matrix(0.2456 -0.9694 0.9694 0.2456 997.7522 2092.2722)" class="st0" cx="1843.12" cy="405.1" rx="16.82" ry="16.82"/>
	
		<ellipse transform="matrix(0.2456 -0.9694 0.9694 0.2456 1065.4088 2119.759)" class="st0" cx="1894.6" cy="375.38" rx="16.82" ry="16.82"/>
	
		<ellipse transform="matrix(0.2456 -0.9694 0.9694 0.2456 1218.8167 1972.438)" class="st0" cx="1876.66" cy="203.15" rx="16.82" ry="16.82"/>
	
		<ellipse transform="matrix(0.2456 -0.9694 0.9694 0.2456 1307.5085 1978.1384)" class="st0" cx="1924.67" cy="149.02" rx="16.82" ry="16.82"/>
	
		<ellipse transform="matrix(0.2456 -0.9694 0.9694 0.2456 1328.7742 1875.2749)" class="st0" cx="1869.21" cy="83.93" rx="16.82" ry="16.82"/>
	
		<ellipse transform="matrix(0.2456 -0.9694 0.9694 0.2456 1383.9089 1931.1564)" class="st0" cx="1932.68" cy="76.45" rx="16.82" ry="16.82"/>
	
		<ellipse transform="matrix(0.2456 -0.9694 0.9694 0.2456 1441.3209 1903.9397)" class="st0" cx="1943.9" cy="25.95" rx="16.82" ry="16.82"/>
	
		<ellipse transform="matrix(0.2456 -0.9694 0.9694 0.2456 1474.5499 1981.0403)" class="st0" cx="2010.05" cy="43.15" rx="16.82" ry="16.82"/>
	
		<ellipse transform="matrix(0.2456 -0.9694 0.9694 0.2456 1448.8097 2010.5212)" class="st0" cx="2016.12" cy="74.43" rx="16.82" ry="16.82"/>
	
		<ellipse transform="matrix(0.2456 -0.9694 0.9694 0.2456 1374.1871 1992.9178)" class="st0" cx="1967.5" cy="113.57" rx="16.82" ry="16.82"/>
	
		<ellipse transform="matrix(0.2456 -0.9694 0.9694 0.2456 1428.137 2062.0994)" class="st0" cx="2038.92" cy="113.5" rx="16.82" ry="16.82"/>
	
		<ellipse transform="matrix(0.2456 -0.9694 0.9694 0.2456 1325.437 2065.6836)" class="st0" cx="1989.88" cy="181.28" rx="16.82" ry="16.82"/>
	
		<ellipse transform="matrix(0.2456 -0.9694 0.9694 0.2456 -755.9772 1665.4529)" class="st0" cx="692.03" cy="1318.43" rx="16.82" ry="16.82"/>
	
		<ellipse transform="matrix(0.2456 -0.9694 0.9694 0.2456 -721.2065 1613.9552)" class="st0" cx="676.33" cy="1270.34" rx="16.82" ry="16.82"/>
	
		<ellipse transform="matrix(0.2456 -0.9694 0.9694 0.2456 -772.6472 1613.3579)" class="st0" cx="650.23" cy="1303.09" rx="16.82" ry="16.82"/>
	
		<ellipse transform="matrix(0.2456 -0.9694 0.9694 0.2456 -808.6653 1638.295)" class="st0" cx="648.24" cy="1338.7" rx="16.82" ry="16.82"/>
	
		<ellipse transform="matrix(0.2456 -0.9694 0.9694 0.2456 -812.4091 1566.8989)" class="st0" cx="600.5" cy="1305.41" rx="16.82" ry="16.82"/>
	
		<ellipse transform="matrix(0.2456 -0.9694 0.9694 0.2456 -703.3744 1691.8625)" class="st0" cx="735.3" cy="1297.83" rx="16.82" ry="16.82"/>
	
		<ellipse transform="matrix(0.2456 -0.9694 0.9694 0.2456 -665.7899 1706.8201)" class="st0" cx="763.7" cy="1281.17" rx="16.82" ry="16.82"/>
	
		<ellipse transform="matrix(0.2456 -0.9694 0.9694 0.2456 -667.9582 1765.2583)" class="st0" cx="800.16" cy="1311.78" rx="16.82" ry="16.82"/>
	
		<ellipse transform="matrix(0.2456 -0.9694 0.9694 0.2456 -1058.6515 1533.036)" class="st0" cx="455.62" cy="1446.68" rx="16.82" ry="16.82"/>
	
		<ellipse transform="matrix(0.2456 -0.9694 0.9694 0.2456 -1070.0974 1690.2863)" class="st0" cx="550.92" cy="1532.66" rx="16.82" ry="16.82"/>
	
		<ellipse transform="matrix(0.2456 -0.9694 0.9694 0.2456 -1517.0823 1483.5311)" class="st0" cx="194.6" cy="1716.46" rx="16.82" ry="16.82"/>
	
		<ellipse transform="matrix(0.2456 -0.9694 0.9694 0.2456 -1487.1049 1480.0609)" class="st0" cx="207.36" cy="1695.46" rx="16.82" ry="16.82"/>
	
		<ellipse transform="matrix(0.2456 -0.9694 0.9694 0.2456 -1444.5984 1495.9813)" class="st0" cx="238.84" cy="1676.11" rx="16.82" ry="16.82"/>
	
		<ellipse transform="matrix(0.2456 -0.9694 0.9694 0.2456 -1488.6224 1570.2213)" class="st0" cx="264.52" cy="1741.52" rx="16.82" ry="16.82"/>
	
		<ellipse transform="matrix(0.2456 -0.9694 0.9694 0.2456 -1800.0187 2322.6699)" class="st0" cx="592.26" cy="2317.81" rx="16.82" ry="16.82"/>
	
		<ellipse transform="matrix(0.2456 -0.9694 0.9694 0.2456 -1985.3848 2252.6223)" class="st0" cx="454.57" cy="2401.88" rx="16.82" ry="16.82"/>
	
		<ellipse transform="matrix(0.2456 -0.9694 0.9694 0.2456 -2155.4617 2270.3855)" class="st0" cx="380.94" cy="2520.03" rx="16.82" ry="16.82"/>
	
		<ellipse transform="matrix(0.2456 -0.9694 0.9694 0.2456 -2148.6323 2183.7302)" class="st0" cx="328.68" cy="2472.32" rx="16.82" ry="16.82"/>
	
		<ellipse transform="matrix(0.2456 -0.9694 0.9694 0.2456 -1907.2621 2225.7644)" class="st0" cx="476.38" cy="2338.26" rx="16.82" ry="16.82"/>
	
		<ellipse transform="matrix(0.2456 -0.9694 0.9694 0.2456 -1963.8372 2121.2581)" class="st0" cx="380.94" cy="2322.35" rx="16.82" ry="16.82"/>
	
		<ellipse transform="matrix(0.2456 -0.9694 0.9694 0.2456 -2122.2725 2233.9478)" class="st0" cx="374.13" cy="2480.49" rx="16.82" ry="16.82"/>
	
		<ellipse transform="matrix(0.2456 -0.9694 0.9694 0.2456 -1715.0769 2327.2979)" class="st0" cx="637.7" cy="2265.55" rx="16.82" ry="16.82"/>
</g>
</svg>
